<svg width="175" height="46" viewBox="0 0 175 46" fill="none" xmlns="http://www.w3.org/2000/svg">
<path d="M4.728 13.976C3.832 13.976 3.16 13.7733 2.712 13.368C2.264 12.9413 2.04 12.3547 2.04 11.608C2.04 10.8613 2.328 10.2427 2.904 9.752C3.50133 9.24 4.23733 8.984 5.112 8.984C5.90133 8.984 6.54133 9.176 7.032 9.56C7.52267 9.944 7.768 10.488 7.768 11.192C7.768 12.0453 7.49067 12.728 6.936 13.24C6.38133 13.7307 5.64533 13.976 4.728 13.976ZM4.472 31.16C3.08533 31.16 2.072 30.6693 1.432 29.688C0.813333 28.7067 0.504 27.4053 0.504 25.784C0.504 24.824 0.621333 23.5973 0.856 22.104C1.112 20.5893 1.432 19.1813 1.816 17.88C2.008 17.1973 2.264 16.728 2.584 16.472C2.904 16.216 3.416 16.088 4.12 16.088C5.208 16.088 5.752 16.4507 5.752 17.176C5.752 17.7093 5.54933 18.9467 5.144 20.888C4.632 23.2347 4.376 24.824 4.376 25.656C4.376 26.296 4.46133 26.7867 4.632 27.128C4.80267 27.4693 5.09067 27.64 5.496 27.64C5.88 27.64 6.36 27.3733 6.936 26.84C7.512 26.3067 8.28 25.464 9.24 24.312C9.496 24.0133 9.784 23.864 10.104 23.864C10.3813 23.864 10.5947 23.992 10.744 24.248C10.9147 24.504 11 24.856 11 25.304C11 26.1573 10.7973 26.8187 10.392 27.288C8.28 29.8693 6.30667 31.16 4.472 31.16ZM22.683 23.864C22.9603 23.864 23.1737 23.992 23.323 24.248C23.4937 24.504 23.579 24.856 23.579 25.304C23.579 26.1573 23.3763 26.8187 22.971 27.288C22.0537 28.4187 21.051 29.3467 19.963 30.072C18.875 30.7973 17.627 31.16 16.219 31.16C11.867 31.16 9.691 28.0987 9.691 21.976C9.691 21.0373 9.723 20.088 9.787 19.128H8.539C7.899 19.128 7.46167 19.0107 7.227 18.776C7.01367 18.5413 6.907 18.168 6.907 17.656C6.907 16.4613 7.387 15.864 8.347 15.864H10.171C10.5337 13.5173 11.0883 11.3733 11.835 9.432C12.5817 7.49067 13.4777 5.944 14.523 4.792C15.5897 3.64 16.731 3.064 17.947 3.064C18.843 3.064 19.547 3.45867 20.059 4.248C20.571 5.03733 20.827 6.02933 20.827 7.224C20.827 10.5307 19.4403 13.4107 16.667 15.864H20.251C20.5923 15.864 20.8377 15.9387 20.987 16.088C21.1363 16.2373 21.211 16.5147 21.211 16.92C21.211 18.392 20.0057 19.128 17.595 19.128H13.691C13.6483 20.1947 13.627 21.0267 13.627 21.624C13.627 23.8427 13.883 25.4 14.395 26.296C14.9283 27.192 15.7603 27.64 16.891 27.64C17.8083 27.64 18.619 27.3627 19.323 26.808C20.027 26.2533 20.859 25.4213 21.819 24.312C22.075 24.0133 22.363 23.864 22.683 23.864ZM17.083 6.136C16.763 6.136 16.4003 6.54133 15.995 7.352C15.611 8.14133 15.2377 9.25067 14.875 10.68C14.5337 12.088 14.2457 13.656 14.011 15.384C15.2697 14.296 16.2083 13.08 16.827 11.736C17.467 10.3707 17.787 9.13333 17.787 8.024C17.787 6.76533 17.5523 6.136 17.083 6.136ZM26.9255 31.864C25.8162 31.864 24.9628 31.608 24.3655 31.096C23.7895 30.584 23.5015 30.008 23.5015 29.368C23.5015 28.8133 23.7042 28.3333 24.1095 27.928C24.5148 27.5227 25.1122 27.32 25.9015 27.32C26.1788 27.32 26.4988 27.352 26.8615 27.416C27.2455 27.4587 27.5335 27.4907 27.7255 27.512C27.7042 26.9573 27.5762 26.4347 27.3415 25.944C27.1282 25.4533 26.8508 24.984 26.5095 24.536C26.1682 24.0667 25.8482 23.6613 25.5495 23.32C24.8882 24.5787 24.2268 25.624 23.5655 26.456C22.9255 27.288 22.2215 28.0773 21.4535 28.824C21.0695 29.208 20.6642 29.4 20.2375 29.4C19.8962 29.4 19.6188 29.2827 19.4055 29.048C19.1922 28.792 19.0855 28.4827 19.0855 28.12C19.0855 27.6933 19.2348 27.2987 19.5335 26.936L19.9495 26.424C21.1228 24.9733 22.0082 23.7787 22.6055 22.84C22.9682 22.2213 23.3948 21.4 23.8855 20.376C24.3762 19.3307 24.8562 18.2533 25.3255 17.144C25.7308 16.2053 26.5735 15.736 27.8535 15.736C28.4508 15.736 28.8668 15.7893 29.1015 15.896C29.3362 16.0027 29.4535 16.1733 29.4535 16.408C29.4535 16.536 29.4108 16.7387 29.3255 17.016C29.2402 17.2933 29.1228 17.5707 28.9735 17.848C28.5895 18.616 28.3975 19.2667 28.3975 19.8C28.3975 20.12 28.5042 20.472 28.7175 20.856C28.9522 21.24 29.3042 21.72 29.7735 22.296C30.4562 23.192 30.9682 23.96 31.3095 24.6C31.6722 25.2187 31.8535 25.9013 31.8535 26.648C31.8535 26.8613 31.8322 27.16 31.7895 27.544C32.8348 27.1387 34.0615 26.0613 35.4695 24.312C35.7255 24.0133 36.0135 23.864 36.3335 23.864C36.6108 23.864 36.8242 23.992 36.9735 24.248C37.1442 24.504 37.2295 24.856 37.2295 25.304C37.2295 26.1147 37.0268 26.776 36.6215 27.288C35.5548 28.6107 34.5308 29.5173 33.5495 30.008C32.5895 30.4773 31.3948 30.7333 29.9655 30.776C29.1122 31.5013 28.0988 31.864 26.9255 31.864ZM38.0538 13.976C37.1578 13.976 36.4858 13.7733 36.0378 13.368C35.5898 12.9413 35.3658 12.3547 35.3658 11.608C35.3658 10.8613 35.6538 10.2427 36.2298 9.752C36.8271 9.24 37.5631 8.984 38.4378 8.984C39.2271 8.984 39.8671 9.176 40.3578 9.56C40.8484 9.944 41.0938 10.488 41.0938 11.192C41.0938 12.0453 40.8164 12.728 40.2618 13.24C39.7071 13.7307 38.9711 13.976 38.0538 13.976ZM43.8138 23.928C44.0911 23.928 44.3044 24.0667 44.4538 24.344C44.6244 24.6 44.7098 24.9307 44.7098 25.336C44.7098 25.8267 44.6351 26.2107 44.4858 26.488C44.3364 26.7653 44.1018 27.0107 43.7818 27.224C42.2884 28.2053 40.2937 29.56 37.7977 31.288C36.9658 35.7253 35.8884 39.2133 34.5658 41.752C33.2431 44.2907 31.5577 45.56 29.5097 45.56C28.4004 45.56 27.5151 45.2187 26.8537 44.536C26.1711 43.8747 25.8297 43 25.8297 41.912C25.8297 40.3973 26.4164 38.776 27.5897 37.048C28.7631 35.3413 30.9711 33.2293 34.2138 30.712L34.4378 29.08C34.7364 27.032 34.9711 25.016 35.1418 23.032C35.2698 21.88 35.4724 20.1627 35.7498 17.88C35.8351 17.2613 36.0698 16.8133 36.4538 16.536C36.8378 16.2373 37.4244 16.088 38.2138 16.088C38.8538 16.088 39.2698 16.184 39.4618 16.376C39.6751 16.568 39.7818 16.8347 39.7818 17.176C39.7818 18.1573 39.4298 20.8667 38.7258 25.304L38.4058 27.512C40.1124 26.232 41.6698 25.1227 43.0778 24.184C43.3551 24.0133 43.6004 23.928 43.8138 23.928ZM29.8617 42.456C30.4164 42.456 31.0244 41.8267 31.6857 40.568C32.3471 39.3093 32.9657 37.2827 33.5418 34.488C31.9204 35.8747 30.7577 37.1227 30.0537 38.232C29.3284 39.3627 28.9657 40.3547 28.9657 41.208C28.9657 42.04 29.2644 42.456 29.8617 42.456ZM45.675 31.16C44.715 31.16 43.9257 30.7227 43.307 29.848C42.7097 28.952 42.411 27.8427 42.411 26.52C42.411 24.92 42.5177 23.4587 42.731 22.136C42.9443 20.792 43.2963 19.3733 43.787 17.88C44.0003 17.24 44.299 16.7813 44.683 16.504C45.067 16.2267 45.675 16.088 46.507 16.088C46.9763 16.088 47.2963 16.1627 47.467 16.312C47.659 16.4613 47.755 16.6853 47.755 16.984C47.755 17.1547 47.6377 17.7307 47.403 18.712C47.1897 19.5013 47.019 20.216 46.891 20.856C46.4643 23.096 46.251 24.5893 46.251 25.336C46.251 25.784 46.3043 26.104 46.411 26.296C46.5177 26.4667 46.6883 26.552 46.923 26.552C47.243 26.552 47.6377 26.232 48.107 25.592C48.5977 24.952 49.1097 23.9813 49.643 22.68C50.1977 21.3787 50.731 19.7787 51.243 17.88C51.4137 17.24 51.6697 16.7813 52.011 16.504C52.3737 16.2267 52.907 16.088 53.611 16.088C54.1017 16.088 54.443 16.152 54.635 16.28C54.827 16.3867 54.923 16.6 54.923 16.92C54.923 17.4533 54.6563 18.9147 54.123 21.304C53.5257 24.0347 53.227 25.72 53.227 26.36C53.227 26.7653 53.3123 27.0853 53.483 27.32C53.6537 27.5333 53.8777 27.64 54.155 27.64C54.5817 27.64 55.083 27.384 55.659 26.872C56.2563 26.3387 57.0457 25.4853 58.027 24.312C58.283 24.0133 58.571 23.864 58.891 23.864C59.1683 23.864 59.3817 23.992 59.531 24.248C59.7017 24.504 59.787 24.856 59.787 25.304C59.787 26.1573 59.5843 26.8187 59.179 27.288C58.2617 28.4187 57.2697 29.3467 56.203 30.072C55.1577 30.7973 53.963 31.16 52.619 31.16C51.595 31.16 50.8377 30.7653 50.347 29.976C49.8777 29.1867 49.643 28.0773 49.643 26.648C49.2803 28.0987 48.7363 29.2187 48.011 30.008C47.2857 30.776 46.507 31.16 45.675 31.16ZM63.1443 31.864C62.0349 31.864 61.1816 31.608 60.5843 31.096C60.0083 30.584 59.7203 30.008 59.7203 29.368C59.7203 28.8133 59.9229 28.3333 60.3283 27.928C60.7336 27.5227 61.3309 27.32 62.1203 27.32C62.3976 27.32 62.7176 27.352 63.0803 27.416C63.4643 27.4587 63.7523 27.4907 63.9443 27.512C63.9229 26.9573 63.7949 26.4347 63.5603 25.944C63.3469 25.4533 63.0696 24.984 62.7283 24.536C62.3869 24.0667 62.0669 23.6613 61.7683 23.32C61.1069 24.5787 60.4456 25.624 59.7843 26.456C59.1443 27.288 58.4403 28.0773 57.6723 28.824C57.2883 29.208 56.8829 29.4 56.4563 29.4C56.1149 29.4 55.8376 29.2827 55.6242 29.048C55.4109 28.792 55.3042 28.4827 55.3042 28.12C55.3042 27.6933 55.4536 27.2987 55.7523 26.936L56.1683 26.424C57.3416 24.9733 58.2269 23.7787 58.8243 22.84C59.1869 22.2213 59.6136 21.4 60.1043 20.376C60.5949 19.3307 61.0749 18.2533 61.5443 17.144C61.9496 16.2053 62.7923 15.736 64.0723 15.736C64.6696 15.736 65.0856 15.7893 65.3203 15.896C65.5549 16.0027 65.6723 16.1733 65.6723 16.408C65.6723 16.536 65.6296 16.7387 65.5443 17.016C65.4589 17.2933 65.3416 17.5707 65.1923 17.848C64.8083 18.616 64.6163 19.2667 64.6163 19.8C64.6163 20.12 64.7229 20.472 64.9363 20.856C65.1709 21.24 65.5229 21.72 65.9923 22.296C66.6749 23.192 67.1869 23.96 67.5283 24.6C67.8909 25.2187 68.0723 25.9013 68.0723 26.648C68.0723 26.8613 68.0509 27.16 68.0083 27.544C69.0536 27.1387 70.2803 26.0613 71.6883 24.312C71.9443 24.0133 72.2323 23.864 72.5522 23.864C72.8296 23.864 73.0429 23.992 73.1923 24.248C73.3629 24.504 73.4483 24.856 73.4483 25.304C73.4483 26.1147 73.2456 26.776 72.8403 27.288C71.7736 28.6107 70.7496 29.5173 69.7683 30.008C68.8083 30.4773 67.6136 30.7333 66.1843 30.776C65.3309 31.5013 64.3176 31.864 63.1443 31.864ZM85.1205 23.864C85.3978 23.864 85.6112 23.992 85.7605 24.248C85.9312 24.504 86.0165 24.856 86.0165 25.304C86.0165 26.1573 85.8138 26.8187 85.4085 27.288C84.4912 28.4187 83.4885 29.3467 82.4005 30.072C81.3125 30.7973 80.0645 31.16 78.6565 31.16C74.3045 31.16 72.1285 28.0987 72.1285 21.976C72.1285 21.0373 72.1605 20.088 72.2245 19.128H70.9765C70.3365 19.128 69.8992 19.0107 69.6645 18.776C69.4512 18.5413 69.3445 18.168 69.3445 17.656C69.3445 16.4613 69.8245 15.864 70.7845 15.864H72.6085C72.9712 13.5173 73.5258 11.3733 74.2725 9.432C75.0192 7.49067 75.9152 5.944 76.9605 4.792C78.0272 3.64 79.1685 3.064 80.3845 3.064C81.2805 3.064 81.9845 3.45867 82.4965 4.248C83.0085 5.03733 83.2645 6.02933 83.2645 7.224C83.2645 10.5307 81.8778 13.4107 79.1045 15.864H82.6885C83.0298 15.864 83.2752 15.9387 83.4245 16.088C83.5738 16.2373 83.6485 16.5147 83.6485 16.92C83.6485 18.392 82.4432 19.128 80.0325 19.128H76.1285C76.0858 20.1947 76.0645 21.0267 76.0645 21.624C76.0645 23.8427 76.3205 25.4 76.8325 26.296C77.3658 27.192 78.1978 27.64 79.3285 27.64C80.2458 27.64 81.0565 27.3627 81.7605 26.808C82.4645 26.2533 83.2965 25.4213 84.2565 24.312C84.5125 24.0133 84.8005 23.864 85.1205 23.864ZM79.5205 6.136C79.2005 6.136 78.8378 6.54133 78.4325 7.352C78.0485 8.14133 77.6752 9.25067 77.3125 10.68C76.9712 12.088 76.6832 13.656 76.4485 15.384C77.7072 14.296 78.6458 13.08 79.2645 11.736C79.9045 10.3707 80.2245 9.13333 80.2245 8.024C80.2245 6.76533 79.9898 6.136 79.5205 6.136ZM101.587 23.864C101.864 23.864 102.078 23.992 102.227 24.248C102.398 24.504 102.483 24.856 102.483 25.304C102.483 26.1573 102.28 26.8187 101.875 27.288C101 28.3547 100.04 29.272 98.995 30.04C97.9497 30.7867 96.915 31.16 95.891 31.16C94.2697 31.16 93.0323 30.2107 92.179 28.312C91.283 29.4427 90.4937 30.2 89.811 30.584C89.1497 30.968 88.371 31.16 87.475 31.16C86.1737 31.16 85.0963 30.68 84.243 29.72C83.411 28.7387 82.995 27.4693 82.995 25.912C82.995 24.2053 83.3577 22.6267 84.083 21.176C84.8083 19.704 85.8003 18.5093 87.059 17.592C88.339 16.6533 89.7683 16.0987 91.347 15.928C91.7523 11.7893 92.5203 8.25867 93.651 5.336C94.803 2.392 96.307 0.919998 98.163 0.919998C99.0803 0.919998 99.8377 1.336 100.435 2.168C101.054 3 101.363 4.25867 101.363 5.944C101.363 8.33333 100.776 11.128 99.603 14.328C98.4297 17.528 96.8617 20.8133 94.899 24.184C94.9843 25.4213 95.1657 26.3067 95.443 26.84C95.7417 27.3733 96.115 27.64 96.563 27.64C97.139 27.64 97.7257 27.384 98.323 26.872C98.9203 26.36 99.7203 25.5067 100.723 24.312C100.979 24.0133 101.267 23.864 101.587 23.864ZM97.811 4.056C97.4057 4.056 97.0003 4.78133 96.595 6.232C96.1897 7.66133 95.8377 9.53867 95.539 11.864C95.2617 14.1893 95.059 16.6213 94.931 19.16C97.3203 13.9547 98.515 9.77333 98.515 6.616C98.515 5.80533 98.4403 5.176 98.291 4.728C98.163 4.28 98.003 4.056 97.811 4.056ZM88.595 27.928C89.0003 27.928 89.4057 27.768 89.811 27.448C90.2163 27.1067 90.7283 26.488 91.347 25.592C91.1337 24.44 91.027 23.1493 91.027 21.72C91.027 21.208 91.0483 20.376 91.091 19.224C89.9177 19.5867 88.9363 20.376 88.147 21.592C87.379 22.7867 86.995 24.12 86.995 25.592C86.995 27.1493 87.5283 27.928 88.595 27.928ZM103.503 31.16C102.181 31.16 101.125 30.68 100.335 29.72C99.5459 28.76 99.1513 27.5013 99.1513 25.944C99.1513 24.2373 99.5459 22.6267 100.335 21.112C101.125 19.576 102.17 18.3493 103.471 17.432C104.794 16.4933 106.191 16.024 107.663 16.024C108.133 16.024 108.442 16.12 108.591 16.312C108.762 16.4827 108.901 16.8027 109.007 17.272C109.455 17.1867 109.925 17.144 110.415 17.144C111.461 17.144 111.983 17.5173 111.983 18.264C111.983 18.712 111.823 19.7787 111.503 21.464C111.013 23.9173 110.767 25.624 110.767 26.584C110.767 26.904 110.842 27.16 110.991 27.352C111.162 27.544 111.375 27.64 111.631 27.64C112.037 27.64 112.527 27.384 113.103 26.872C113.679 26.3387 114.458 25.4853 115.439 24.312C115.695 24.0133 115.983 23.864 116.303 23.864C116.581 23.864 116.794 23.992 116.943 24.248C117.114 24.504 117.199 24.856 117.199 25.304C117.199 26.1573 116.997 26.8187 116.591 27.288C115.717 28.376 114.789 29.2933 113.807 30.04C112.826 30.7867 111.877 31.16 110.959 31.16C110.255 31.16 109.605 30.9253 109.007 30.456C108.431 29.9653 107.994 29.304 107.695 28.472C106.586 30.264 105.189 31.16 103.503 31.16ZM104.655 27.928C105.125 27.928 105.573 27.6507 105.999 27.096C106.426 26.5413 106.735 25.8053 106.927 24.888L108.111 19C107.215 19.0213 106.383 19.3627 105.615 20.024C104.869 20.664 104.271 21.5173 103.823 22.584C103.375 23.6507 103.151 24.7813 103.151 25.976C103.151 26.6373 103.279 27.128 103.535 27.448C103.813 27.768 104.186 27.928 104.655 27.928ZM116.871 31.16C116.06 31.16 115.484 30.7333 115.143 29.88C114.823 29.0267 114.663 27.6613 114.663 25.784C114.663 23.0107 115.057 20.376 115.847 17.88C116.039 17.2613 116.348 16.8133 116.775 16.536C117.223 16.2373 117.841 16.088 118.631 16.088C119.057 16.088 119.356 16.1413 119.527 16.248C119.697 16.3547 119.783 16.5573 119.783 16.856C119.783 17.1973 119.623 17.9653 119.303 19.16C119.089 20.0133 118.919 20.76 118.791 21.4C118.663 22.04 118.556 22.8293 118.471 23.768C119.175 21.9333 119.964 20.44 120.839 19.288C121.713 18.136 122.567 17.3147 123.399 16.824C124.252 16.3333 125.031 16.088 125.735 16.088C127.121 16.088 127.815 16.7813 127.815 18.168C127.815 19 127.58 20.504 127.111 22.68C126.705 24.536 126.503 25.7627 126.503 26.36C126.503 27.2133 126.812 27.64 127.431 27.64C127.857 27.64 128.359 27.384 128.935 26.872C129.532 26.3387 130.321 25.4853 131.303 24.312C131.559 24.0133 131.847 23.864 132.167 23.864C132.444 23.864 132.657 23.992 132.807 24.248C132.977 24.504 133.062 24.856 133.062 25.304C133.062 26.1573 132.86 26.8187 132.455 27.288C131.537 28.4187 130.545 29.3467 129.479 30.072C128.433 30.7973 127.239 31.16 125.895 31.16C124.807 31.16 123.985 30.8507 123.431 30.232C122.876 29.592 122.599 28.6747 122.599 27.48C122.599 26.8827 122.748 25.816 123.047 24.28C123.324 22.936 123.463 22.008 123.463 21.496C123.463 21.1547 123.345 20.984 123.111 20.984C122.833 20.984 122.439 21.3467 121.927 22.072C121.436 22.776 120.924 23.7147 120.391 24.888C119.879 26.0613 119.463 27.2987 119.143 28.6C118.908 29.6027 118.631 30.2853 118.311 30.648C118.012 30.9893 117.532 31.16 116.871 31.16ZM132.746 31.16C131.935 31.16 131.359 30.7333 131.018 29.88C130.698 29.0267 130.538 27.6613 130.538 25.784C130.538 23.0107 130.932 20.376 131.722 17.88C131.914 17.2613 132.223 16.8133 132.65 16.536C133.098 16.2373 133.716 16.088 134.506 16.088C134.932 16.088 135.231 16.1413 135.402 16.248C135.572 16.3547 135.658 16.5573 135.658 16.856C135.658 17.1973 135.498 17.9653 135.178 19.16C134.964 20.0133 134.794 20.76 134.666 21.4C134.538 22.04 134.431 22.8293 134.346 23.768C135.05 21.9333 135.839 20.44 136.714 19.288C137.588 18.136 138.442 17.3147 139.274 16.824C140.127 16.3333 140.906 16.088 141.61 16.088C142.996 16.088 143.69 16.7813 143.69 18.168C143.69 19 143.455 20.504 142.986 22.68C142.58 24.536 142.378 25.7627 142.378 26.36C142.378 27.2133 142.687 27.64 143.306 27.64C143.732 27.64 144.234 27.384 144.81 26.872C145.407 26.3387 146.196 25.4853 147.178 24.312C147.434 24.0133 147.722 23.864 148.042 23.864C148.319 23.864 148.532 23.992 148.682 24.248C148.852 24.504 148.938 24.856 148.938 25.304C148.938 26.1573 148.735 26.8187 148.33 27.288C147.412 28.4187 146.42 29.3467 145.354 30.072C144.308 30.7973 143.114 31.16 141.77 31.16C140.682 31.16 139.86 30.8507 139.306 30.232C138.751 29.592 138.474 28.6747 138.474 27.48C138.474 26.8827 138.623 25.816 138.922 24.28C139.199 22.936 139.338 22.008 139.338 21.496C139.338 21.1547 139.22 20.984 138.986 20.984C138.708 20.984 138.314 21.3467 137.802 22.072C137.311 22.776 136.799 23.7147 136.266 24.888C135.754 26.0613 135.338 27.2987 135.018 28.6C134.783 29.6027 134.506 30.2853 134.186 30.648C133.887 30.9893 133.407 31.16 132.746 31.16ZM162.733 23.928C163.01 23.928 163.223 24.0667 163.373 24.344C163.543 24.6 163.628 24.9307 163.628 25.336C163.628 25.8267 163.554 26.2107 163.405 26.488C163.255 26.7653 163.021 27.0107 162.701 27.224L156.557 31.352C155.746 35.768 154.679 39.2347 153.357 41.752C152.055 44.2907 150.391 45.56 148.365 45.56C147.277 45.56 146.391 45.2187 145.709 44.536C145.026 43.8747 144.684 43 144.684 41.912C144.684 40.9093 144.909 39.8853 145.357 38.84C145.826 37.7947 146.679 36.5893 147.917 35.224C149.175 33.88 150.946 32.3333 153.229 30.584L153.325 29.848C153.474 29.0587 153.645 27.928 153.837 26.456C153.41 27.992 152.813 29.1653 152.045 29.976C151.277 30.7653 150.466 31.16 149.613 31.16C148.653 31.16 147.863 30.7227 147.245 29.848C146.647 28.952 146.349 27.8427 146.349 26.52C146.349 24.92 146.455 23.4587 146.669 22.136C146.882 20.792 147.234 19.3733 147.725 17.88C147.938 17.24 148.237 16.7813 148.621 16.504C149.005 16.2267 149.613 16.088 150.445 16.088C150.914 16.088 151.234 16.1627 151.405 16.312C151.597 16.4613 151.693 16.6853 151.693 16.984C151.693 17.1547 151.575 17.7307 151.341 18.712C151.127 19.5013 150.957 20.216 150.829 20.856C150.658 21.7307 150.509 22.5733 150.381 23.384C150.253 24.1733 150.189 24.824 150.189 25.336C150.189 26.1467 150.413 26.552 150.861 26.552C151.181 26.552 151.575 26.232 152.045 25.592C152.535 24.952 153.047 23.9813 153.581 22.68C154.135 21.3787 154.669 19.7787 155.181 17.88C155.351 17.24 155.607 16.7813 155.949 16.504C156.311 16.2267 156.845 16.088 157.549 16.088C158.039 16.088 158.381 16.152 158.573 16.28C158.765 16.408 158.861 16.6213 158.861 16.92C158.861 17.4533 158.583 19.288 158.029 22.424L157.197 27.576C158.839 26.3387 160.439 25.208 161.997 24.184C162.274 24.0133 162.519 23.928 162.733 23.928ZM148.717 42.456C149.25 42.456 149.847 41.8373 150.509 40.6C151.17 39.3627 151.831 37.304 152.493 34.424C150.85 35.8107 149.655 37.0693 148.909 38.2C148.183 39.352 147.821 40.3547 147.821 41.208C147.821 41.5707 147.885 41.8693 148.013 42.104C148.162 42.3387 148.397 42.456 148.717 42.456ZM167.997 31.16C165.864 31.16 164.306 30.3387 163.325 28.696C162.365 27.0533 161.885 24.6747 161.885 21.56C161.885 18.808 162.226 15.8213 162.909 12.6C163.592 9.35733 164.584 6.60533 165.885 4.344C167.208 2.06133 168.776 0.919998 170.589 0.919998C171.57 0.919998 172.36 1.34667 172.957 2.2C173.554 3.032 173.853 4.12 173.853 5.464C173.853 7.21333 173.522 8.952 172.861 10.68C172.2 12.408 171.101 14.2213 169.565 16.12C170.61 16.2053 171.517 16.5573 172.285 17.176C173.074 17.7947 173.672 18.5947 174.077 19.576C174.504 20.5573 174.717 21.624 174.717 22.776C174.717 24.376 174.397 25.816 173.757 27.096C173.138 28.376 172.317 29.3787 171.293 30.104C170.269 30.808 169.17 31.16 167.997 31.16ZM166.109 18.296C167.517 15.7147 168.637 13.4427 169.469 11.48C170.322 9.496 170.749 7.736 170.749 6.2C170.749 5.51733 170.664 4.99467 170.493 4.632C170.344 4.26933 170.13 4.088 169.853 4.088C169.426 4.088 168.957 4.728 168.445 6.008C167.954 7.26667 167.496 8.984 167.069 11.16C166.642 13.336 166.322 15.7147 166.109 18.296ZM168.125 27.704C168.85 27.704 169.458 27.3093 169.949 26.52C170.461 25.7307 170.717 24.5787 170.717 23.064C170.717 21.8907 170.504 21.0053 170.077 20.408C169.65 19.8107 169.138 19.512 168.541 19.512C167.794 19.512 167.165 19.896 166.653 20.664C166.141 21.432 165.885 22.552 165.885 24.024C165.885 25.304 166.098 26.2427 166.525 26.84C166.952 27.416 167.485 27.704 168.125 27.704Z" fill="white"/>
</svg>
